# xmcd
#
# Track frame offsets:
#	150
#	29315
#	57637
#	85527
#	107432
#	130010
#	160063
#	183870
#	198544
#	263064
#	281282
#	317235
#	338619
#
# Disc length: 4726 seconds
# Revision: 0
# Processed by: cddbd v1.5.2PL0 Copyright (c) Steve Scherf et al.
# Submitted via: dBpowerAMP V12.0
#
DISCID=a712740d
DTITLE=Walter, Bruno - Metropolitan Opera - Mozart: Die Zauberflöte, Act 2 [Walter]
DYEAR=1942
DGENRE=Opera
TTITLE0=Overture
TTITLE1=Zu Hilfe! Zu Hilfe!
TTITLE2=Der Vogelfanger bin ich ja
TTITLE3=Dies Bildnis ist bezaubern schon
TTITLE4=O zitre nicht
TTITLE5=Hm! Hm! Hm!
TTITLE6=Du feines taubchen
TTITLE7=Bei Mannern
TTITLE8=Zum Ziele fuhrt dich diese Bahn
TTITLE9=Schnelle fusse, rascher Mut
TTITLE10=Es lebe Sarastro
TTITLE11=March of the priests
TTITLE12=O Isis und Osiris
EXTD=
EXTT0=
EXTT1=
EXTT2=
EXTT3=
EXTT4=
EXTT5=
EXTT6=
EXTT7=
EXTT8=
EXTT9=
EXTT10=
EXTT11=
EXTT12=
PLAYORDER=
